<svg width="266" height="118" viewBox="0 0 266 118" fill="none" xmlns="http://www.w3.org/2000/svg"><circle cx="129.182" cy="46.932" r="27.123" stroke="#B1BCD2" stroke-width="2"/><circle cx="129.182" cy="46.932" r="22.526" stroke="#B1BCD2" stroke-width="2"/><path d="M124.048 56.51a7.585 7.585 0 0110.727 0m-14.387-11.417l-2.039 2.039m0 0l-2.039 2.039m2.039-2.04l2.039 2.04m-2.039-2.04l-2.039-2.038m26.344 0l-2.039 2.039m0 0l-2.039 2.039m2.039-2.04l2.039 2.04m-2.039-2.04l-2.039-2.038" stroke="#B1BCD2" stroke-width="2" stroke-linecap="round"/><rect x="147.192" y="72.653" width="11.033" height="23.905" rx="5.517" transform="rotate(-45 147.192 72.653)" stroke="#B1BCD2" stroke-width="2"/><path stroke="#B1BCD2" stroke-width="2" d="M148.919 70.895l4.226-4.226-2.666-2.666-4.226 4.226z"/><path fill-rule="evenodd" clip-rule="evenodd" d="M68.715 49.05c-.15-.523-.699-.87-1.223-.729l-6.269 1.68-.072.02c-2.216.593-3.977 1.065-5.307 1.62-1.37.572-2.423 1.287-3.094 2.45-.67 1.162-.764 2.43-.574 3.904.184 1.43.656 3.19 1.25 5.406l.019.072 2.844 10.616.02.073c.593 2.215 1.065 3.976 1.62 5.306.573 1.37 1.288 2.423 2.45 3.094 1.162.671 2.431.764 3.905.575 1.43-.185 3.19-.657 5.405-1.25l.073-.02 8.024-2.15.072-.019c2.215-.593 3.976-1.065 5.306-1.62 1.371-.573 2.424-1.288 3.095-2.45.67-1.162.764-2.431.574-3.905-.184-1.43-.656-3.19-1.25-5.406l-.02-.072-2.41-8.995c-.14-.526-.716-.829-1.243-.696-.54.137-.832.679-.687 1.217l2.409 8.992c.617 2.304 1.052 3.935 1.217 5.216.162 1.251.042 2.017-.323 2.649-.364.631-.968 1.118-2.132 1.604-1.192.497-2.822.936-5.126 1.554l-8.024 2.15c-2.304.617-3.935 1.052-5.216 1.217-1.251.161-2.018.042-2.649-.323-.631-.364-1.118-.968-1.604-2.133-.497-1.191-.936-2.821-1.554-5.125l-2.844-10.617c-.618-2.304-1.053-3.935-1.218-5.215-.16-1.252-.041-2.018.323-2.65.365-.631.968-1.118 2.133-1.604 1.191-.497 2.822-.936 5.126-1.553l6.265-1.68c.538-.143.861-.667.709-1.203z" fill="#D8DEE9" fill-opacity=".7"/><path d="M72.17 51.423l5.504 3.178c-1.021.267-1.79.446-2.424.528-.836.108-1.207.01-1.469-.141-.26-.151-.532-.424-.856-1.202-.246-.589-.475-1.345-.756-2.363z" stroke="#D8DEE9" stroke-opacity=".7" stroke-width="3" stroke-linejoin="round"/><path d="M61.334 66.234l7.549-2.023m-5.735 9.087l12.985-3.48" stroke="#D8DEE9" stroke-opacity=".7" stroke-width="2" stroke-linecap="round"/><path fill-rule="evenodd" clip-rule="evenodd" d="M207.592 50.896c.132-.527-.17-1.102-.695-1.242l-6.268-1.68-.073-.02c-2.215-.593-3.976-1.065-5.405-1.25-1.474-.19-2.743-.096-3.905.575-1.162.671-1.877 1.723-2.45 3.095-.555 1.33-1.027 3.09-1.62 5.306l-.02.072-2.844 10.616-.02.073c-.593 2.215-1.065 3.976-1.249 5.405-.19 1.474-.097 2.743.574 3.905.671 1.162 1.723 1.877 3.094 2.45 1.33.555 3.091 1.027 5.307 1.62l.072.02 8.024 2.15.072.019c2.216.594 3.976 1.066 5.406 1.25 1.473.19 2.742.096 3.904-.575 1.163-.67 1.878-1.723 2.45-3.094.555-1.33 1.027-3.09 1.621-5.306l.019-.073 2.41-8.995c.141-.525-.206-1.076-.729-1.224-.536-.151-1.059.172-1.203.71l-2.41 8.992c-.617 2.304-1.056 3.934-1.553 5.125-.487 1.165-.973 1.769-1.605 2.133-.631.365-1.397.484-2.649.323-1.28-.165-2.911-.6-5.215-1.217l-8.025-2.15c-2.304-.618-3.934-1.057-5.125-1.554-1.165-.486-1.768-.973-2.133-1.604-.364-.631-.484-1.398-.323-2.65.165-1.28.6-2.911 1.218-5.215l2.844-10.616c.618-2.304 1.057-3.935 1.554-5.126.486-1.164.973-1.768 1.604-2.133.631-.364 1.398-.484 2.649-.323 1.28.165 2.912.6 5.216 1.218l6.265 1.678c.538.145 1.08-.147 1.216-.688z" fill="#D8DEE9" fill-opacity=".7"/><path d="M209.397 54.679l3.178 5.505c-1.018-.28-1.774-.51-2.363-.755-.777-.325-1.05-.596-1.201-.857-.151-.262-.249-.633-.141-1.469.081-.633.261-1.402.527-2.424z" stroke="#D8DEE9" stroke-opacity=".7" stroke-width="3" stroke-linejoin="round"/><path d="M192.608 62.088l7.549 2.022m-9.51 5.002l12.984 3.48" stroke="#D8DEE9" stroke-opacity=".7" stroke-width="2" stroke-linecap="round"/><path d="M23.17 73.05c-.279-.466-.9-.658-1.37-.387l-5.685 3.282c-1.986 1.147-3.565 2.059-4.706 2.94-1.176.907-2.008 1.87-2.355 3.166-.347 1.297-.109 2.546.456 3.92.548 1.334 1.46 2.912 2.606 4.899l5.57 9.648c1.147 1.986 2.059 3.565 2.939 4.706.908 1.176 1.87 2.007 3.167 2.354 1.296.348 2.546.109 3.92-.455 1.333-.548 2.912-1.46 4.898-2.607l7.324-4.228c1.986-1.147 3.565-2.058 4.706-2.938 1.176-.908 2.008-1.871 2.355-3.168.347-1.296.109-2.546-.456-3.92-.548-1.333-1.46-2.912-2.606-4.898l-4.694-8.13c-.272-.47-.906-.614-1.38-.35-.487.272-.628.871-.35 1.354l4.655 8.061c1.192 2.066 2.035 3.53 2.525 4.723.48 1.167.563 1.938.374 2.643-.189.704-.646 1.33-1.645 2.101-1.022.789-2.483 1.635-4.549 2.828l-7.194 4.153c-2.066 1.193-3.529 2.035-4.723 2.526-1.167.48-1.938.562-2.642.374-.704-.189-1.33-.646-2.102-1.645-.788-1.022-1.634-2.483-2.827-4.55l-5.495-9.518c-1.193-2.065-2.035-3.528-2.526-4.723-.48-1.167-.563-1.938-.374-2.642.189-.704.646-1.33 1.645-2.101 1.022-.79 2.483-1.635 4.549-2.828l5.617-3.243c.482-.279.66-.868.373-1.347z" fill="#F3F5F8"/><path d="M28.463 76.536c-.39-.505-.807-1.177-1.342-2.087l6.14 1.645c-.918.521-1.614.894-2.205 1.137-.78.32-1.163.322-1.455.244-.291-.079-.623-.272-1.138-.94z" stroke="#F3F5F8" stroke-width="3" stroke-linejoin="round"/><path d="M20.488 91.56l6.768-3.908M24.07 97.914l11.642-6.722" stroke="#F3F5F8" stroke-width="2" stroke-linecap="round"/><path fill-rule="evenodd" clip-rule="evenodd" d="M252.484 76.618c.264-.475.121-1.108-.349-1.38l-5.621-3.245-.065-.037c-1.986-1.147-3.565-2.059-4.898-2.607-1.374-.565-2.624-.803-3.92-.456-1.296.348-2.259 1.18-3.167 2.355-.881 1.141-1.792 2.72-2.939 4.706l-.037.065-5.496 9.518-.037.065c-1.147 1.987-2.058 3.565-2.606 4.898-.565 1.374-.803 2.624-.456 3.92.347 1.297 1.179 2.26 2.355 3.168 1.141.88 2.72 1.792 4.706 2.938l.065.038 7.194 4.153.065.038c1.986 1.147 3.565 2.058 4.898 2.606 1.374.565 2.624.803 3.92.456 1.296-.348 2.259-1.179 3.167-2.355.88-1.141 1.792-2.72 2.939-4.706l.037-.065 4.656-8.065c.272-.471.08-1.092-.388-1.37-.478-.286-1.067-.109-1.345.373l-4.655 8.062c-1.193 2.066-2.039 3.527-2.827 4.549-.771.999-1.398 1.456-2.102 1.645-.704.189-1.475.106-2.642-.374-1.194-.491-2.657-1.333-4.723-2.526l-7.194-4.153c-2.066-1.193-3.527-2.039-4.549-2.828-.999-.77-1.456-1.397-1.645-2.101-.189-.704-.106-1.475.374-2.643.49-1.194 1.333-2.657 2.525-4.723l5.496-9.518c1.193-2.066 2.039-3.527 2.827-4.549.771-.999 1.398-1.456 2.102-1.645.704-.188 1.475-.106 2.642.374 1.194.49 2.657 1.333 4.723 2.526l5.617 3.243c.483.279 1.082.137 1.353-.35z" fill="#F3F5F8"/><path d="M253.249 80.74l1.645 6.14c-.911-.535-1.582-.952-2.087-1.342-.667-.515-.861-.847-.939-1.138-.078-.292-.077-.676.244-1.456.242-.59.615-1.287 1.137-2.205z" stroke="#F3F5F8" stroke-width="3" stroke-linejoin="round"/><path d="M235.114 83.55l6.768 3.907m-10.481 2.37l11.642 6.722" stroke="#F3F5F8" stroke-width="2" stroke-linecap="round"/><path fill-rule="evenodd" clip-rule="evenodd" d="M142.16.146a.5.5 0 01.707 0l.796.796.796-.796a.5.5 0 11.707.708l-.796.795.796.796a.5.5 0 01-.707.707l-.796-.796-.796.796a.5.5 0 11-.707-.707l.796-.796-.796-.795a.5.5 0 010-.708z" fill="#EDF0F9"/><path d="M89.186 16.82a2.528 2.528 0 11-5.057 0 2.528 2.528 0 015.057 0zm21.607 75.394a2.069 2.069 0 11-4.137 0 2.069 2.069 0 014.137 0z" fill="#EDF0F9"/><path fill-rule="evenodd" clip-rule="evenodd" d="M211.242 18.389a1.569 1.569 0 100-3.137 1.569 1.569 0 000 3.137zm0 .5a2.069 2.069 0 100-4.137 2.069 2.069 0 000 4.137z" fill="#EDF0F9"/><path d="M183.161 17.794c.198-.803.297-1.204.498-1.204s.3.401.498 1.204l.545 2.206c.036.146.054.22.104.27.051.05.124.069.27.105l2.207.545c.802.198 1.203.297 1.203.497 0 .201-.401.3-1.203.498l-2.207.545c-.146.036-.219.054-.27.105-.05.05-.068.123-.104.27l-.545 2.206c-.198.802-.297 1.203-.498 1.203s-.3-.4-.498-1.203l-.544-2.206c-.037-.147-.055-.22-.105-.27-.051-.05-.124-.069-.27-.105l-2.207-.545c-.802-.198-1.203-.297-1.203-.498 0-.2.401-.3 1.203-.497l2.207-.545c.146-.036.219-.054.27-.105.05-.05.068-.124.105-.27l.544-2.206zM29.153 54.59c.429-.26.643-.389.73-.303.085.087-.044.3-.303.73l-.712 1.178c-.047.079-.071.118-.071.161 0 .044.024.083.07.16l.713 1.18c.259.428.388.643.302.729-.086.086-.3-.043-.729-.302l-1.179-.713c-.078-.047-.117-.07-.16-.07-.044 0-.083.023-.161.07l-1.18.713c-.428.259-.642.388-.728.302-.086-.086.043-.3.302-.73l.712-1.178c.048-.078.071-.117.071-.16 0-.044-.023-.083-.07-.161l-.713-1.18c-.259-.428-.388-.642-.302-.728.086-.087.3.043.729.302l1.179.712c.078.047.117.07.16.07.044 0 .083-.023.161-.07l1.18-.712z" fill="#EDF0F9"/></svg>